# xmcd CD database file
#
# Track frame offsets:
#	150
#	27742
#	53346
#	83078
#	104801
#	124725
#	142153
#	183929
#	217004
#	239034
#
# Disc length: 3464 seconds
#
# Revision: 0
# Processed by: cddbd v1.5.1PL0 Copyright (c) Steve Scherf et al.
# Submitted via: CDex 1.51
#
DISCID=970d860a
DTITLE=Bayou Gator - Road Work
DYEAR=1900
DGENRE=Blues
TTITLE0=South Central
TTITLE1=Lollipop Mama
TTITLE2=Driftin Blues
TTITLE3=If the Shoe Fits...
TTITLE4=Shouldn't say that
TTITLE5=Swear to tell the truth
TTITLE6=Commit A Crime
TTITLE7=The Work Song
TTITLE8=Baby Caught The Train
TTITLE9=I Gets To Thinkin'
EXTD=
EXTT0=
EXTT1=
EXTT2=
EXTT3=
EXTT4=
EXTT5=
EXTT6=
EXTT7=
EXTT8=
EXTT9=
PLAYORDER=
